IKResults
version=1
nRows=15
nColumns=45
inDegrees=yes

Units are S.I. units (second, meters, Newtons, ...)
If the header above contains a line with 'inDegrees', this indicates whether rotational values are in degrees (yes) or radians (no).

endheader
time	pelvis_tilt	pelvis_list	pelvis_rotation	pelvis_tx	pelvis_ty	pelvis_tz	hip_flexion_r	hip_adduction_r	hip_rotation_r	knee_angle_r	knee_adduction_r	knee_angle_r_beta	ankle_angle_r	subtalar_angle_r	mtp_angle_r	hip_flexion_l	hip_adduction_l	hip_rotation_l	knee_angle_l	knee_adduction_l	knee_angle_l_beta	ankle_angle_l	subtalar_angle_l	mtp_angle_l	lumbar_extension	lumbar_bending	lumbar_rotation	thoracic_extension	thoracic_bending	thoracic_rotation	arm_flex_r	arm_add_r	arm_rot_r	elbow_flex_r	pro_sup_r	wrist_flex_r	wrist_dev_r	arm_flex_l	arm_add_l	arm_rot_l	elbow_flex_l	pro_sup_l	wrist_flex_l	wrist_dev_l
      0.39000000	      7.00159817	      3.11217883	     -4.31004966	      0.59865709	      0.96348199	      0.47001826	     15.91875418	     -3.65005331	      1.20823451	     71.49246635	      0.00000001	      1.24777893	      4.70312464	    -16.78782602	    -13.79695105	      0.11193210	      6.69444423	      1.10612242	     18.00159397	      0.00000000	      0.31418709	     13.97119163	    -15.19271192	     -9.30277618	    -12.67702121	     -2.92492421	     -1.81062470	      0.00000000	      0.00000000	      0.00000000	      0.77847351	    -12.38412905	      3.03496117	     26.32217500	     89.99911678	      0.00000000	      0.00000000	      3.25362811	    -16.31142593	      8.15375349	     41.94642755	     89.99945425	      0.00000000	      0.00000000
      0.40242857	      7.02300487	      2.78975670	     -4.20675671	      0.59680522	      0.96461977	      0.46973602	     17.24969219	     -3.10134896	      1.05494855	     69.90060706	      0.00000001	      1.21999574	      5.89984994	    -15.89934369	    -15.08024319	     -1.03571175	      6.39246061	      1.32993213	     17.34646347	      0.00000000	      0.30275290	     14.03253726	    -15.03364540	     -9.41312869	    -12.90238970	     -2.57297839	     -2.12868047	      0.00000000	      0.00000000	      0.00000000	      0.04847828	    -12.25461144	      2.69529175	     25.87236675	     89.99911678	      0.00000000	      0.00000000	      4.11571918	    -16.89653630	      8.09468059	     43.57291267	     89.99945425	      0.00000000	      0.00000000
      0.41485714	      7.03609436	      2.47326706	     -4.06814688	      0.59501268	      0.96560080	      0.46940982	     18.45043516	     -2.59850230	      0.85472459	     68.09719811	      0.00000001	      1.18852032	      6.97398446	    -14.62569861	    -16.24684143	     -2.13904549	      6.06986366	      1.45868358	     16.73850218	      0.00000000	      0.29214197	     14.15939994	    -14.68354316	     -9.54889052	    -13.12475897	     -2.19592711	     -2.50750775	      0.00000000	      0.00000000	      0.00000000	     -0.68125700	    -12.15132744	      2.27943473	     25.59244689	     89.99911678	      0.00000000	      0.00000000	      4.91984939	    -17.51405107	      7.99246946	     45.22188901	     89.99945425	      0.00000000	      0.00000000
      0.42728571	      7.01292731	      2.16860885	     -3.90554890	      0.59333031	      0.96641640	      0.46912149	     19.51957207	     -2.12359390	      0.63619020	     66.03249397	      0.00000001	      1.15248443	      7.85212491	    -13.35833313	    -16.98730164	     -3.19154321	      5.74467327	      1.59605021	     16.13308554	      0.00000000	      0.28157546	     14.26835715	    -14.33094789	     -9.68128249	    -13.28456361	     -1.84030885	     -2.88456981	      0.00000000	      0.00000000	      0.00000000	     -1.40603301	    -12.03674649	      1.85167897	     25.32574838	     89.99911678	      0.00000000	      0.00000000	      5.72025631	    -18.10819920	      7.86868454	     46.76318630	     89.99945425	      0.00000000	      0.00000000
      0.43971429	      7.04485924	      1.89346961	     -3.71753179	      0.59169786	      0.96719681	      0.46889542	     20.33356195	     -1.70307566	      0.41091272	     63.63894598	      0.00000001	      1.11070914	      8.55243236	    -12.11875749	    -17.37377290	     -4.29460586	      5.43393820	      1.72469938	     15.52062696	      0.00000000	      0.27088604	     14.33007856	    -13.93413390	     -9.86513437	    -13.49885076	     -1.53046035	     -3.25331036	      0.00000000	      0.00000000	      0.00000000	     -2.09162125	    -11.89666629	      1.36473195	     25.02790343	     89.99911678	      0.00000000	      0.00000000	      6.50962727	    -18.69495136	      7.74464545	     48.29290527	     89.99945425	      0.00000000	      0.00000000
      0.45214286	      6.54936551	      1.78309330	     -3.62795966	      0.59013073	      0.96705655	      0.46874538	     21.69069803	     -1.38993381	      0.37008151	     61.12708552	      0.00000001	      1.06686890	      9.03348497	    -11.23544703	    -17.18488022	     -4.76509957	      5.28345244	      1.81715157	     14.99244337	      0.00000000	      0.26166750	     14.45684112	    -13.61963609	     -9.80633577	    -13.08245274	     -1.37096135	     -3.47885598	      0.00000000	      0.00000000	      0.00000000	     -2.89302580	    -11.82392039	      1.17918350	     24.88722741	     89.99911678	      0.00000000	      0.00000000	      7.27739047	    -19.20386578	      7.65142080	     49.48602975	     89.99945425	      0.00000000	      0.00000000
      0.46457143	      6.98013909	      1.46495051	     -3.43170524	      0.58846283	      0.96815459	      0.46873138	     21.57889407	     -0.97623478	      0.14250636	     57.83538277	      0.00000001	      1.00941785	      9.32712317	    -10.15153076	    -17.13284755	     -6.35245256	      4.90210554	      1.87506745	     14.26606419	      0.00000000	      0.24898979	     14.40960496	    -13.09221430	    -10.16395455	    -13.76871576	     -1.05959673	     -3.89414826	      0.00000000	      0.00000000	      0.00000000	     -3.23270348	    -11.61904339	      0.52018098	     24.35272015	     89.99911678	      0.00000000	      0.00000000	      8.01708679	    -19.86082882	      7.62168580	     51.09089712	     89.99945425	      0.00000000	      0.00000000
      0.47700000	      6.26368727	      1.61052140	     -3.43288193	      0.58670922	      0.96731316	      0.46887519	     22.91120578	     -0.89897260	      0.32191878	     54.74920662	      0.00000001	      0.95555392	      9.52339432	     -9.62028487	    -16.71346992	     -6.50329198	      5.01831267	      1.98182646	     13.83746374	      0.00000000	      0.24150930	     14.56027745	    -12.80910145	    -10.07637133	    -13.10840956	     -1.21714409	     -4.01983670	      0.00000000	      0.00000000	      0.00000000	     -3.98829666	    -11.51622704	      0.40614667	     24.38691535	     89.99911678	      0.00000000	      0.00000000	      8.76289506	    -20.34932484	      7.49304576	     52.12863751	     89.99945425	      0.00000000	      0.00000000
      0.48942857	      6.78177589	      1.11853504	     -3.22098592	      0.58527482	      0.96849987	      0.46904015	     22.09825025	     -0.28952520	      0.10846471	     50.34621033	      0.00000001	      0.87870714	      9.04878417	     -9.56547077	    -16.53306171	     -8.28469579	      4.41230445	      1.92613990	     12.96282735	      0.00000000	      0.22624402	     14.33576999	    -12.22116146	    -10.59477851	    -13.90265308	     -0.70018727	     -4.37166110	      0.00000000	      0.00000000	      0.00000000	     -4.18456462	    -11.35371853	     -0.33606075	     23.79015908	     89.99911678	      0.00000000	      0.00000000	      9.41932292	    -20.94961892	      7.54091340	     53.60059867	     89.99945425	      0.00000000	      0.00000000
      0.50185714	      6.62691116	      0.99708937	     -3.13766745	      0.58363290	      0.96833649	      0.46947434	     22.09646989	      0.02577064	      0.21459594	     45.98626131	      0.00000001	      0.80261167	      8.58593137	     -9.85018035	    -16.61537263	     -9.20064585	      4.19485193	      1.93303355	     12.27541321	      0.00000000	      0.21424638	     14.33084426	    -11.79220760	    -11.12760568	    -13.91806023	     -0.60361472	     -4.55329820	      0.00000000	      0.00000000	      0.00000000	     -4.62405199	    -11.17023298	     -0.88177927	     23.76221843	     89.99911678	      0.00000000	      0.00000000	     10.12206752	    -21.43104711	      7.48282920	     54.72210549	     89.99945425	      0.00000000	      0.00000000
      0.51428571	      6.39789314	      0.91478417	     -3.10183086	      0.58205747	      0.96791105	      0.46997745	     21.96168927	      0.30793761	      0.42458812	     41.24000374	      0.00000001	      0.71977385	      7.99537579	    -10.34566883	    -16.69652606	    -10.03292896	      4.03739992	      1.99166903	     11.61033102	      0.00000000	      0.20263850	     14.22547947	    -11.57206033	    -11.47230997	    -13.84714212	     -0.54250083	     -4.66070234	      0.00000000	      0.00000000	      0.00000000	     -4.95223501	    -11.02009623	     -1.26293284	     23.48021035	     89.99911678	      0.00000000	      0.00000000	     10.79442583	    -21.90524865	      7.51198832	     55.72142486	     89.99945425	      0.00000000	      0.00000000
      0.52671429	      6.16381847	      0.85327214	     -3.02954594	      0.58059394	      0.96730275	      0.47052964	     21.57622774	      0.54311180	      0.68775156	     36.07927871	      0.00000001	      0.62970221	      7.23030001	    -10.98102974	    -17.11710807	    -10.85928391	      3.88790015	      2.05417679	     10.95326116	      0.00000000	      0.19117047	     14.13418501	    -11.26381439	    -11.96116270	    -13.77235559	     -0.49767060	     -4.78915261	      0.00000000	      0.00000000	      0.00000000	     -5.32980320	    -10.88837372	     -1.65705161	     23.49302457	     89.99911678	      0.00000000	      0.00000000	     11.39122491	    -22.34114259	      7.49805531	     56.73612671	     89.99945425	      0.00000000	      0.00000000
      0.53914286	      5.87964981	      0.85850049	     -2.97576501	      0.57926266	      0.96634154	      0.47112127	     21.07591526	      0.69515809	      1.06476062	     30.68326952	      0.00000001	      0.53552408	      6.42572486	    -11.62610170	    -17.70629560	    -11.62368104	      3.81719548	      2.17123236	     10.32018032	      0.00000000	      0.18012113	     14.02654038	    -11.08947097	    -12.50166494	    -13.62629600	     -0.51583434	     -4.88425574	      0.00000000	      0.00000000	      0.00000000	     -5.65707926	    -10.77398579	     -2.03079971	     23.49874179	     89.99911678	      0.00000000	      0.00000000	     11.94863312	    -22.74196728	      7.50651095	     57.65686252	     89.99945425	      0.00000000	      0.00000000
      0.55157143	      5.53477304	      0.97189513	     -2.95633342	      0.57806405	      0.96498849	      0.47182835	     20.54969839	      0.72063345	      1.58372131	     25.24646512	      0.00000001	      0.44063394	      5.68411185	    -12.09045261	    -18.41522838	    -12.29273200	      3.86354133	      2.29414695	      9.75007471	      0.00000000	      0.17017091	     13.88757166	    -10.97194414	    -13.11620581	    -13.40083636	     -0.65117229	     -4.92633408	      0.00000000	      0.00000000	      0.00000000	     -5.99029527	    -10.65407679	     -2.42017596	     23.58367777	     89.99911678	      0.00000000	      0.00000000	     12.45257529	    -23.10839860	      7.51556623	     58.53940041	     89.99945425	      0.00000000	      0.00000000
      0.56400000	      4.80614256	      1.29185504	     -3.04159159	      0.57697479	      0.96274145	      0.47251845	     20.56165234	      0.52233337	      2.16943179	     20.19887240	      0.00000001	      0.35253683	      5.45508724	    -11.76170564	    -18.50693441	    -12.47349757	      4.16297444	      2.45675536	      9.31436183	      0.00000000	      0.16256628	     13.82389929	    -11.08223329	    -13.35056123	    -12.69790006	     -0.98247658	     -4.85949686	      0.00000000	      0.00000000	      0.00000000	     -6.29272509	    -10.58633202	     -2.53723832	     23.49360318	     89.99911678	      0.00000000	      0.00000000	     12.89187187	    -23.42806767	      7.62326496	     59.17655498	     89.99945425	      0.00000000	      0.00000000
